<?xml version="1.0" encoding="utf-8"?>
<!-- Generator: Adobe Illustrator 17.0.0, SVG Export Plug-In . SVG Version: 6.00 Build 0)  -->
<!DOCTYPE svg PUBLIC "-//W3C//DTD SVG 1.1 Tiny//EN" "http://www.w3.org/Graphics/SVG/1.1/DTD/svg11-tiny.dtd">
<svg version="1.1" baseProfile="tiny" id="Layer_1" xmlns="http://www.w3.org/2000/svg" xmlns:xlink="http://www.w3.org/1999/xlink"
	 x="0px" y="0px" width="186.152px" height="194.233px" viewBox="0 0 186.152 194.233" xml:space="preserve">
<path fill="#FEFEFE" d="M168.109,123.81c-7.177-10.145-18.992-16.785-32.336-16.785c-21.838,0-39.605,17.767-39.605,39.605
	s17.768,39.604,39.605,39.604c21.838,0,39.604-17.767,39.604-39.604c0-4.631-0.625-7.97-1.766-11.644
	c-0.025-0.082,0.137,0.554-0.095-0.379c0.821-0.625,5.999-6.737,6.049-6.631c2.66,5.751,3.812,11.924,3.812,18.653
	c0,26.249-21.355,47.604-47.604,47.604c-26.25,0-47.605-21.355-47.605-47.604s21.355-47.605,47.605-47.605
	c0.367,0,0.741,0.047,1.108,0.071c3.03,0.198,6.061,0.452,9.044,1.042c2.887,0.57,5.702,1.453,8.406,2.615
	c2.687,1.154,5.271,2.559,7.709,4.174c2.394,1.585,4.635,3.392,6.668,5.42c0.998,0.994,1.946,2.038,2.86,3.11
	c0.455,0.534,0.902,1.075,1.345,1.62c0.429,0.528,0.69,0.906,1.102,1.441L168.109,123.81z M185.791,114.849
	c-4.003-3.652-11.841,5.158-14.439,7.477c-4.801,4.283-9.398,8.805-14.665,12.531c-2.912,2.061-5.994,3.867-9.303,5.217
	c-5.989,2.441-10.45,2.59-16.476,0.359c-1.912-0.709-3.828-1.412-5.698-2.227c-0.773-0.338-1.551-0.689-2.299-1.086
	c-1.461-0.775-3.31-2.325-4.265-0.675c-1.062,1.837,1.312,7.339,2.085,8.88c1.603,3.189,3.141,6.463,4.883,9.575
	c2.714,4.851,6.645,10.936,12.862,11.171c2.655,0.1,5.525-1.156,8.607-4.365c9.593-9.986,19.003-20.152,28.323-30.395
	c3.6-3.953,6.891-8.205,10.062-12.51C186.181,117.839,186.415,115.417,185.791,114.849z M142.725,79.041v12.767
	c-2.686-0.395-5.43-0.606-8.225-0.606c0-6.627-2.688-12-6-12h-18c-3.314,0-6,5.373-6,12c0,2.991,0.551,5.722,1.456,7.823
	c-7.085,4.207-13.166,9.925-17.788,16.719c-0.139-0.02-0.277-0.042-0.419-0.042h-18c-3.313,0-6,5.373-6,12c0,6.627,2.686,12,6,12
	h9.265c-0.329,2.455-0.515,4.955-0.515,7.5c0,2.518,0.183,4.993,0.505,7.424H24.583c-6.627,0-12-5.223-12-11.666V79.041
	c0-6.443,5.373-11.666,12-11.666h106.142C137.352,67.375,142.725,72.598,142.725,79.041z M52.25,127.701c0-6.627-2.687-12-6-12h-18
	c-3.313,0-6,5.373-6,12c0,6.627,2.686,12,6,12h18C49.563,139.701,52.25,134.328,52.25,127.701z M52.25,91.201c0-6.627-2.687-12-6-12
	h-18c-3.314,0-6,5.373-6,12c0,6.627,2.686,12,6,12h18C49.563,103.201,52.25,97.828,52.25,91.201z M93.749,91.201
	c0-6.627-2.687-12-6-12h-18c-3.313,0-6,5.373-6,12c0,6.627,2.686,12,6,12h18C91.063,103.201,93.749,97.828,93.749,91.201z
	 M24.583,154.625c-6.627,0-12-5.223-12-11.666V79.041c0-6.443,5.373-11.666,12-11.666h106.142c6.627,0,12,5.223,12,11.666v12.767
	c4.934,0.727,9.656,2.1,14.084,4.025V21.875c0-6.628-5.373-12-12-12H132v14.819c6.027,0.637,10.725,5.734,10.725,11.931v9.25
	c0,6.628-5.373,12-12,12H24.583c-6.627,0-12-5.372-12-12v-9.25c0-6.628,5.373-12,12-12H35v4.625c0,2.899,2.351,5.25,5.25,5.25
	c2.899,0,5.25-2.351,5.25-5.25v-24C45.5,2.351,43.149,0,40.25,0C37.35,0,35,2.351,35,5.25v4.625H12c-6.628,0-12,5.372-12,12v131.18
	c0,6.628,5.372,12,12,12h69.423c-1.125-3.347-1.942-6.833-2.419-10.43H24.583z M112,29.25c0,2.899,2.35,5.25,5.25,5.25
	c2.898,0,5.25-2.351,5.25-5.25v-24c0-2.899-2.352-5.25-5.25-5.25c-2.9,0-5.25,2.351-5.25,5.25v4.625H55.25v14.75H112V29.25z
	 M46.25,79.201h-18c-3.314,0-6,5.373-6,12c0,6.627,2.686,12,6,12h18c3.313,0,6-5.373,6-12C52.25,84.574,49.563,79.201,46.25,79.201z
	 M46.25,115.701h-18c-3.313,0-6,5.373-6,12c0,6.627,2.686,12,6,12h18c3.313,0,6-5.373,6-12
	C52.25,121.074,49.563,115.701,46.25,115.701z M87.749,79.201h-18c-3.313,0-6,5.373-6,12c0,6.627,2.686,12,6,12h18
	c3.313,0,6-5.373,6-12C93.749,84.574,91.063,79.201,87.749,79.201z M87.749,115.701h-18c-3.313,0-6,5.373-6,12
	c0,6.627,2.686,12,6,12h9.265c1.178-8.796,4.385-16.947,9.154-23.958C88.03,115.724,87.891,115.701,87.749,115.701z M128.5,79.201
	h-18c-3.314,0-6,5.373-6,12c0,2.991,0.551,5.722,1.456,7.823c8.36-4.964,18.116-7.823,28.544-7.823
	C134.5,84.574,131.813,79.201,128.5,79.201z"/>
<g>
</g>
<g>
</g>
<g>
</g>
<g>
</g>
<g>
</g>
<g>
</g>
<g>
</g>
<g>
</g>
<g>
</g>
<g>
</g>
<g>
</g>
<g>
</g>
<g>
</g>
<g>
</g>
<g>
</g>
</svg>
