<?xml version="1.0" encoding="utf-8"?>
<!-- Generator: Adobe Illustrator 17.0.0, SVG Export Plug-In . SVG Version: 6.00 Build 0)  -->
<!DOCTYPE svg PUBLIC "-//W3C//DTD SVG 1.1 Tiny//EN" "http://www.w3.org/Graphics/SVG/1.1/DTD/svg11-tiny.dtd">
<svg version="1.1" baseProfile="tiny" id="Layer_1" xmlns="http://www.w3.org/2000/svg" xmlns:xlink="http://www.w3.org/1999/xlink"
	 x="0px" y="0px" width="175.321px" height="159.47px" viewBox="0 0 175.321 159.47" xml:space="preserve">
<path fill="#FFFFFF" d="M111.197,73.903L84.982,3.365c-0.477-1.294,0.182-2.732,1.469-3.21c1.293-0.475,2.727,0.178,3.213,1.469
	c0.012,0.048,0.033,0.109,0.05,0.156L111.197,73.903z M65.121,51.255c-0.051-0.063-0.105-0.117-0.162-0.175
	c-0.992-0.966-2.572-0.943-3.529,0.044c-0.961,0.994-0.939,2.57,0.048,3.529l37.041,36.049L65.121,51.255z M3.327,69.059
	c-0.039-0.013-0.087-0.03-0.132-0.046c-1.32-0.386-2.706,0.371-3.092,1.691c-0.392,1.319,0.369,2.71,1.688,3.096l86.343,25.367
	L3.327,69.059z M54.106,107.538c-0.165-0.012-0.345-0.01-0.515,0.01c-1.373,0.158-2.36,1.404-2.2,2.773
	c0.16,1.379,1.402,2.364,2.777,2.202l24.202-2.802L54.106,107.538z M131.898,19.004c0.04-0.163,0.066-0.338,0.071-0.505
	c0.094-1.974-1.591-3.51-3.769-3.427c-2.188,0.078-4.025,1.756-4.13,3.732l-2.495,50.399L131.898,19.004z M38.848,73.186
	c2.247,2.048,5.731,1.888,7.784-0.354c2.058-2.254,1.892-5.732-0.359-7.779c-2.249-2.054-5.724-1.893-7.774,0.353
	C36.446,67.647,36.602,71.134,38.848,73.186z M110.431,19.456c1.616,1.481,4.125,1.363,5.602-0.25
	c1.478-1.624,1.358-4.131-0.257-5.607c-1.619-1.481-4.131-1.361-5.604,0.262C108.697,15.473,108.806,17.987,110.431,19.456z
	 M104.05,84.633c1.617,1.477,4.129,1.365,5.611-0.247c1.472-1.621,1.354-4.131-0.262-5.608c-1.616-1.48-4.125-1.363-5.608,0.251
	C102.318,80.647,102.436,83.156,104.05,84.633z M35.509,102.098c1.612,1.472,4.123,1.365,5.604-0.251
	c1.477-1.627,1.356-4.133-0.261-5.608c-1.619-1.487-4.125-1.365-5.605,0.253C33.774,98.105,33.879,100.616,35.509,102.098z
	 M136.316,65.04c1.614,1.472,4.121,1.361,5.602-0.257c1.483-1.622,1.365-4.131-0.251-5.611c-1.625-1.484-4.134-1.36-5.607,0.25
	C134.582,61.05,134.687,63.562,136.316,65.04z M41.263,38.215c1.617,1.48,4.126,1.368,5.604-0.257
	c1.477-1.612,1.365-4.131-0.252-5.608c-1.625-1.479-4.134-1.359-5.605,0.264C39.53,34.231,39.647,36.738,41.263,38.215z
	 M115.524,87.805l-5.841,6.404l28.904-1.317l-3.321-5.992L115.524,87.805z M153.281,119.42l-3.32-5.991l-60.34,2.753l-5.206,5.71
	l1.375,0.603L153.281,119.42z M145.933,106.159l-3.316-5.984l-40.045,1.82l-5.839,6.409L145.933,106.159z M167.973,145.952
	l-3.319-5.986l-35.516,1.619l12.634,5.567L167.973,145.952z M160.628,132.688l-3.318-5.989l-56.164,2.559l12.633,5.567
	L160.628,132.688z M175.321,159.211l-3.309-5.984l-14.879,0.671l12.636,5.572L175.321,159.211z M19.557,110.868l0.183,3.589
	l-3.588-0.183l2.667,2.409l-2.667,2.407l3.588-0.183l-0.183,3.588l2.408-2.667l2.409,2.667l-0.185-3.588l3.591,0.183l-2.668-2.407
	l2.668-2.409l-3.591,0.183l0.185-3.589l-2.409,2.668L19.557,110.868z M146.148,36.321l0.183,3.589l-3.589-0.183l2.667,2.408
	l-2.667,2.408l3.589-0.183l-0.183,3.589l2.408-2.667l2.408,2.667l-0.185-3.589l3.591,0.183l-2.668-2.408l2.668-2.408l-3.591,0.183
	l0.185-3.589l-2.408,2.667L146.148,36.321z M71.989,25.5l0.185,3.589l-3.59-0.183l2.667,2.408l-2.667,2.408l3.59-0.183l-0.185,3.588
	l2.41-2.666l2.407,2.666l-0.185-3.588l3.59,0.183l-2.667-2.408l2.667-2.408l-3.59,0.183l0.185-3.589l-2.407,2.668L71.989,25.5z
	 M11.309,47.031l0.238,4.652l-4.653-0.237l3.457,3.121l-3.457,3.122l4.653-0.237l-0.238,4.652l3.123-3.457l3.121,3.457l-0.238-4.652
	l4.652,0.237l-3.457-3.122l3.457-3.121l-4.652,0.237l0.238-4.652l-3.121,3.458L11.309,47.031z M45.923,152.217
	c2.789-1.018,4.243-4.118,3.225-6.919c-1.036-2.804-4.138-4.237-6.934-3.215c-2.812,1.02-4.24,4.118-3.221,6.925
	C40.011,151.803,43.11,153.252,45.923,152.217z M27.321,134.307c-0.078,0.019-0.15,0.044-0.227,0.071
	c-1.297,0.48-1.955,1.919-1.474,3.206c0.485,1.295,1.919,1.952,3.208,1.472l48.457-17.985L27.321,134.307z"/>
<g>
</g>
<g>
</g>
<g>
</g>
<g>
</g>
<g>
</g>
<g>
</g>
<g>
</g>
<g>
</g>
<g>
</g>
<g>
</g>
<g>
</g>
<g>
</g>
<g>
</g>
<g>
</g>
<g>
</g>
</svg>
