<?xml version="1.0" encoding="utf-8"?>
<!-- Generator: Adobe Illustrator 17.0.0, SVG Export Plug-In . SVG Version: 6.00 Build 0)  -->
<!DOCTYPE svg PUBLIC "-//W3C//DTD SVG 1.1 Tiny//EN" "http://www.w3.org/Graphics/SVG/1.1/DTD/svg11-tiny.dtd">
<svg version="1.1" baseProfile="tiny" xmlns="http://www.w3.org/2000/svg" xmlns:xlink="http://www.w3.org/1999/xlink" x="0px"
	 y="0px" width="800px" height="400px" viewBox="0 0 800 400" xml:space="preserve">
<g id="Layer_1">
	<path display="none" fill="#FFFFFF" d="M312-78c0,6.627-5.373,12-12,12H-46c-6.627,0-12-5.373-12-12v-173c0-6.627,5.373-12,12-12
		h346c6.627,0,12,5.373,12,12V-78z"/>
	<path fill="#031C2A" d="M12,400h776c6.627,0,12-5.373,12-12V12c0-6.627-5.373-12-12-12H12C5.373,0,0,5.373,0,12v376
		C0,394.627,5.373,400,12,400z M763,268c0,22.091-17.909,40-40,40H463c-22.091,0-40-17.909-40-40V128c0-22.091,17.909-40,40-40h260
		c22.091,0,40,17.909,40,40V268z M390,267c0,22.091-17.909,40-40,40H90c-22.091,0-40-17.909-40-40V127c0-22.091,17.909-40,40-40h260
		c22.091,0,40,17.909,40,40V267z"/>
</g>
<g id="Layer_2">
	<g>
	</g>
	<g>
	</g>
	<g>
	</g>
	<g>
	</g>
	<g>
	</g>
	<g>
	</g>
	<g>
	</g>
	<g>
	</g>
	<g>
	</g>
	<g>
	</g>
	<g>
	</g>
	<g>
	</g>
	<g>
	</g>
	<g>
	</g>
	<g>
	</g>
</g>
</svg>
